HIERARCHY
ROOT Hips
{
	OFFSET 0.000000 83.214638 0.000000
	CHANNELS 6 Xposition Yposition Zposition Xrotation Yrotation Zrotation
	JOINT Pelvis
	{
		OFFSET 0.000000 0.000000 0.000000
		CHANNELS 3 Xrotation Yrotation Zrotation
		JOINT LeftUpLeg
		{
			OFFSET 8.479700 -4.795502 -0.379100
			CHANNELS 3 Xrotation Yrotation Zrotation
			JOINT LeftLeg
			{
				OFFSET 0.024144 -32.555107 0.112900
				CHANNELS 3 Xrotation Yrotation Zrotation
				JOINT LeftFoot
				{
					OFFSET -0.024144 -32.638630 -3.012600
					CHANNELS 3 Xrotation Yrotation Zrotation
					JOINT LeftToeBase
					{
						OFFSET 0.970200 -13.225400 11.864200
						CHANNELS 3 Xrotation Yrotation Zrotation
						End Site
						{
							OFFSET 0.000000 12.319262 0.000000
						}
					}
					JOINT LFootTongue
					{
						OFFSET 1.142400 -1.059800 6.665200
						CHANNELS 3 Xrotation Yrotation Zrotation
						End Site
						{
							OFFSET 0.000000 12.319262 0.000000
						}
					}
				}
				JOINT LeftPantLeg
				{
					OFFSET 0.918482 -16.533964 -2.284700
					CHANNELS 3 Xrotation Yrotation Zrotation
					End Site
					{
						OFFSET 0.350399 24.744368 0.000000
					}
				}
			}
		}
		JOINT RightUpLeg
		{
			OFFSET -8.479700 -4.795502 -0.379100
			CHANNELS 3 Xrotation Yrotation Zrotation
			JOINT RightLeg
			{
				OFFSET -0.023144 -32.555092 0.112900
				CHANNELS 3 Xrotation Yrotation Zrotation
				JOINT RightFoot
				{
					OFFSET 0.023144 -32.638641 -3.012700
					CHANNELS 3 Xrotation Yrotation Zrotation
					JOINT RightToeBase
					{
						OFFSET -0.970200 -13.225400 11.864200
						CHANNELS 3 Xrotation Yrotation Zrotation
						End Site
						{
							OFFSET 0.000000 12.319244 0.000000
						}
					}
					JOINT RFootTongue
					{
						OFFSET -1.142200 -1.059800 6.665200
						CHANNELS 3 Xrotation Yrotation Zrotation
						End Site
						{
							OFFSET 0.000000 12.319243 0.000000
						}
					}
				}
				JOINT RightPantLeg
				{
					OFFSET -0.919482 -16.533978 -2.284800
					CHANNELS 3 Xrotation Yrotation Zrotation
					End Site
					{
						OFFSET -0.350400 24.744419 0.000000
					}
				}
			}
		}
	}
	JOINT Spine
	{
		OFFSET 0.000000 7.722000 1.166200
		CHANNELS 3 Xrotation Yrotation Zrotation
		JOINT Spine1
		{
			OFFSET 0.000000 12.024101 0.248800
			CHANNELS 3 Xrotation Yrotation Zrotation
			JOINT Spine2
			{
				OFFSET 0.000000 11.502998 -0.491200
				CHANNELS 3 Xrotation Yrotation Zrotation
				JOINT Neck
				{
					OFFSET 0.000000 18.430702 -3.123100
					CHANNELS 3 Xrotation Yrotation Zrotation
					JOINT Head
					{
						OFFSET 0.000000 9.051102 1.034000
						CHANNELS 3 Xrotation Yrotation Zrotation
						JOINT HairB
						{
							OFFSET 0.208400 24.786102 24.822300
							CHANNELS 3 Xrotation Yrotation Zrotation
							End Site
							{
								OFFSET 0.000000 32.263779 0.000000
							}
						}
						JOINT HairA
						{
							OFFSET -7.081100 24.428299 23.196600
							CHANNELS 3 Xrotation Yrotation Zrotation
							End Site
							{
								OFFSET 0.000000 32.263779 0.000000
							}
						}
						JOINT Hat
						{
							OFFSET 16.728800 15.048294 -15.439601
							CHANNELS 3 Xrotation Yrotation Zrotation
							End Site
							{
								OFFSET 0.000000 32.263779 0.000000
							}
						}
					}
				}
				JOINT LeftShoulder
				{
					OFFSET 6.197800 13.665199 -4.064700
					CHANNELS 3 Xrotation Yrotation Zrotation
					JOINT LeftArm
					{
						OFFSET 7.778100 -0.187103 -1.709300
						CHANNELS 3 Xrotation Yrotation Zrotation
						JOINT LeftForeArm
						{
							OFFSET 22.049376 0.000000 0.000000
							CHANNELS 3 Xrotation Yrotation Zrotation
							JOINT LeftHand
							{
								OFFSET 23.009392 0.000000 0.000000
								CHANNELS 3 Xrotation Yrotation Zrotation
								JOINT LeftHandThumb1
								{
									OFFSET 3.507191 -2.063065 3.133727
									CHANNELS 3 Xrotation Yrotation Zrotation
									JOINT LeftHandThumb2
									{
										OFFSET 3.101337 -1.790558 1.790558
										CHANNELS 3 Xrotation Yrotation Zrotation
										JOINT LeftHandThumb3
										{
											OFFSET 3.058640 -1.765907 1.765906
											CHANNELS 3 Xrotation Yrotation Zrotation
											End Site
											{
												OFFSET -0.415260 3.926476 -0.049563
											}
										}
									}
								}
								JOINT LeftHandIndex1
								{
									OFFSET 11.334419 -0.901459 3.706815
									CHANNELS 3 Xrotation Yrotation Zrotation
									JOINT LeftHandIndex2
									{
										OFFSET 3.283112 0.000000 0.000000
										CHANNELS 3 Xrotation Yrotation Zrotation
										JOINT LeftHandIndex3
										{
											OFFSET 3.323853 0.000000 0.000000
											CHANNELS 3 Xrotation Yrotation Zrotation
											End Site
											{
												OFFSET -1.135597 3.097809 0.402452
											}
										}
									}
								}
								JOINT LeftHandMiddle1
								{
									OFFSET 11.335861 0.000000 0.000000
									CHANNELS 3 Xrotation Yrotation Zrotation
									JOINT LeftHandMiddle2
									{
										OFFSET 3.410492 0.000000 0.000000
										CHANNELS 3 Xrotation Yrotation Zrotation
										JOINT LeftHandMiddle3
										{
											OFFSET 3.312172 0.000000 0.000000
											CHANNELS 3 Xrotation Yrotation Zrotation
											End Site
											{
												OFFSET -1.150200 3.080154 0.400270
											}
										}
									}
								}
								JOINT LeftHandRing1
								{
									OFFSET 11.514786 -0.013176 -3.003090
									CHANNELS 3 Xrotation Yrotation Zrotation
									JOINT LeftHandRing2
									{
										OFFSET 3.053307 0.000000 0.000000
										CHANNELS 3 Xrotation Yrotation Zrotation
										JOINT LeftHandRing3
										{
											OFFSET 3.295807 0.000000 0.000000
											CHANNELS 3 Xrotation Yrotation Zrotation
											End Site
											{
												OFFSET -1.281006 3.013344 0.375733
											}
										}
									}
								}
								JOINT LeftHandPinky1
								{
									OFFSET 10.518692 -0.960396 -5.730441
									CHANNELS 3 Xrotation Yrotation Zrotation
									JOINT LeftHandPinky2
									{
										OFFSET 2.861649 0.000000 0.000000
										CHANNELS 3 Xrotation Yrotation Zrotation
										JOINT LeftHandPinky3
										{
											OFFSET 2.863380 0.000000 0.000000
											CHANNELS 3 Xrotation Yrotation Zrotation
											End Site
											{
												OFFSET -0.843597 2.711159 0.369971
											}
										}
									}
								}
							}
							JOINT LSleeve
							{
								OFFSET 6.676277 -0.344902 -1.011730
								CHANNELS 3 Xrotation Yrotation Zrotation
								End Site
								{
									OFFSET 0.000000 14.885353 0.000000
								}
							}
						}
					}
				}
				JOINT RightShoulder
				{
					OFFSET -6.197800 13.665199 -4.064700
					CHANNELS 3 Xrotation Yrotation Zrotation
					JOINT RightArm
					{
						OFFSET -7.778100 -0.187103 -1.709300
						CHANNELS 3 Xrotation Yrotation Zrotation
						JOINT RightForeArm
						{
							OFFSET -22.049376 0.000000 0.000000
							CHANNELS 3 Xrotation Yrotation Zrotation
							JOINT RightHand
							{
								OFFSET -23.009392 0.000000 0.000000
								CHANNELS 3 Xrotation Yrotation Zrotation
								JOINT RightHandThumb1
								{
									OFFSET -3.507191 -2.063065 3.133727
									CHANNELS 3 Xrotation Yrotation Zrotation
									JOINT RightHandThumb2
									{
										OFFSET -3.101337 -1.790558 1.790558
										CHANNELS 3 Xrotation Yrotation Zrotation
										JOINT RightHandThumb3
										{
											OFFSET -3.058640 -1.765907 1.765906
											CHANNELS 3 Xrotation Yrotation Zrotation
											End Site
											{
												OFFSET 0.415260 3.926476 -0.049563
											}
										}
									}
								}
								JOINT RightHandIndex1
								{
									OFFSET -11.334419 -0.901459 3.706815
									CHANNELS 3 Xrotation Yrotation Zrotation
									JOINT RightHandIndex2
									{
										OFFSET -3.283112 0.000000 0.000000
										CHANNELS 3 Xrotation Yrotation Zrotation
										JOINT RightHandIndex3
										{
											OFFSET -3.323853 0.000000 0.000000
											CHANNELS 3 Xrotation Yrotation Zrotation
											End Site
											{
												OFFSET 1.135597 3.097809 0.402452
											}
										}
									}
								}
								JOINT RightHandMiddle1
								{
									OFFSET -11.335861 0.000000 0.000000
									CHANNELS 3 Xrotation Yrotation Zrotation
									JOINT RightHandMiddle2
									{
										OFFSET -3.410492 0.000000 0.000000
										CHANNELS 3 Xrotation Yrotation Zrotation
										JOINT RightHandMiddle3
										{
											OFFSET -3.312172 0.000000 0.000000
											CHANNELS 3 Xrotation Yrotation Zrotation
											End Site
											{
												OFFSET 1.150200 3.080154 0.400270
											}
										}
									}
								}
								JOINT RightHandRing1
								{
									OFFSET -11.514786 -0.013176 -3.003090
									CHANNELS 3 Xrotation Yrotation Zrotation
									JOINT RightHandRing2
									{
										OFFSET -3.053307 0.000000 0.000000
										CHANNELS 3 Xrotation Yrotation Zrotation
										JOINT RightHandRing3
										{
											OFFSET -3.295807 0.000000 0.000000
											CHANNELS 3 Xrotation Yrotation Zrotation
											End Site
											{
												OFFSET 1.281006 3.013344 0.375733
											}
										}
									}
								}
								JOINT RightHandPinky1
								{
									OFFSET -10.518692 -0.960396 -5.730441
									CHANNELS 3 Xrotation Yrotation Zrotation
									JOINT RightHandPinky2
									{
										OFFSET -2.861649 0.000000 0.000000
										CHANNELS 3 Xrotation Yrotation Zrotation
										JOINT RightHandPinky3
										{
											OFFSET -2.863380 0.000000 0.000000
											CHANNELS 3 Xrotation Yrotation Zrotation
											End Site
											{
												OFFSET 0.843597 2.711159 0.369971
											}
										}
									}
								}
							}
							JOINT RSleeve
							{
								OFFSET -6.676277 -0.344902 -1.011730
								CHANNELS 3 Xrotation Yrotation Zrotation
								End Site
								{
									OFFSET 0.000000 14.885353 0.000000
								}
							}
						}
					}
				}
				JOINT Backpack
				{
					OFFSET 0.000000 -2.471497 36.677502
					CHANNELS 3 Xrotation Yrotation Zrotation
					End Site
					{
						OFFSET 0.000000 20.427315 0.000000
					}
				}
				JOINT Hood
				{
					OFFSET 0.000000 18.754097 -10.431000
					CHANNELS 3 Xrotation Yrotation Zrotation
					JOINT Hood1
					{
						OFFSET 0.000000 -5.011002 -7.685901
						CHANNELS 3 Xrotation Yrotation Zrotation
						End Site
						{
							OFFSET 0.000000 9.175140 0.000000
						}
					}
				}
				JOINT LHoodieString
				{
					OFFSET 5.250500 16.397697 3.089900
					CHANNELS 3 Xrotation Yrotation Zrotation
					JOINT LHoodieString1
					{
						OFFSET 0.257700 -6.364304 3.694600
						CHANNELS 3 Xrotation Yrotation Zrotation
						JOINT LHoodieString2
						{
							OFFSET 0.000000 -9.643799 2.679100
							CHANNELS 3 Xrotation Yrotation Zrotation
							End Site
							{
								OFFSET 0.000000 10.009018 0.000000
							}
						}
					}
				}
				JOINT RHoodieString
				{
					OFFSET -5.250500 16.397697 3.089900
					CHANNELS 3 Xrotation Yrotation Zrotation
					JOINT RHoodieString1
					{
						OFFSET -0.257700 -6.364304 3.694600
						CHANNELS 3 Xrotation Yrotation Zrotation
						JOINT RHoodieString2
						{
							OFFSET 0.000000 -9.643799 2.679100
							CHANNELS 3 Xrotation Yrotation Zrotation
							End Site
							{
								OFFSET 0.000000 10.009018 0.000000
							}
						}
					}
				}
			}
			JOINT LBackpack_Strap
			{
				OFFSET 15.223200 -7.719803 -6.610900
				CHANNELS 3 Xrotation Yrotation Zrotation
				End Site
				{
					OFFSET 0.000000 16.040596 0.000000
				}
			}
			JOINT RBackpack_Strap
			{
				OFFSET -15.223000 -7.719803 -6.610900
				CHANNELS 3 Xrotation Yrotation Zrotation
				End Site
				{
					OFFSET 0.000000 16.040596 0.000000
				}
			}
		}
	}
	JOINT BoyFacialAnim_Joint
	{
		OFFSET 1.000000 -82.208099 -1.550900
		CHANNELS 3 Xrotation Yrotation Zrotation
		End Site
		{
			OFFSET 0.000000 30.012791 0.000000
		}
	}
}
MOTION
Frames: 4
Frame Time: 0.016667
-0.111469 82.529381 0.476916 -4.056189 6.163107 -1.770508 0.000001 0.000000 0.000000 -2.722098 10.918894 10.710460 9.776140 -6.614840 0.228529 -4.246684 0.656858 -6.983838 -0.000000 0.000000 -0.000000 -0.000000 0.000000 -0.000000 -0.000000 -0.000001 -0.000000 -0.893757 -5.945862 1.761542 8.469546 3.424983 -0.555030 -3.331206 0.034535 0.279687 0.000000 0.000000 0.000000 0.000000 0.000000 0.000000 -0.000000 0.000000 0.000000 4.903445 -0.349184 1.227239 5.814412 -0.121248 1.891503 -4.300226 -0.608020 -1.115062 1.348864 -1.122447 0.966616 4.180612 -0.441330 -1.260351 0.000001 -0.000000 -0.000000 0.000001 -0.000000 -0.000000 0.000001 -0.000000 -0.000000 1.687379 -7.781275 -3.495010 -0.671931 -2.004021 -76.954218 6.346057 -10.905883 1.751773 -0.215900 -0.743846 3.407697 -3.786639 8.458010 12.355388 7.478470 11.594933 -1.281174 -0.000000 -0.000000 -0.000002 2.378696 3.620432 -6.815228 0.000195 0.249696 -17.103528 -0.000001 -0.000001 -0.000002 -1.935736 5.644663 -11.386980 0.106894 0.707437 -24.767378 0.000003 -0.000000 -0.000002 -4.873084 10.020057 -7.875485 -0.020640 0.335918 -30.084746 -0.000001 0.000001 0.000002 -6.437462 11.282576 -19.770925 0.037272 0.251334 -30.842156 0.000000 0.000000 -0.000000 -0.000001 0.000000 0.000001 2.088909 10.213785 4.097141 1.436097 3.709014 75.271786 15.720273 15.338547 -4.555613 -4.674560 -0.553307 -0.689869 -0.464245 -8.992499 -6.084856 7.449377 -11.614441 1.291251 -0.000005 0.000000 0.000002 2.362063 -3.634250 8.333119 0.014203 -0.252985 18.622463 0.000001 0.000000 0.000002 -1.983683 -5.671330 13.530169 0.119620 -0.656150 26.914145 -0.000002 0.000001 0.000002 -4.977985 -10.100877 10.695794 -0.012089 -0.340802 32.924063 0.000000 0.000000 -0.000001 -6.474119 -11.323135 23.226067 0.055859 -0.250367 34.317838 0.000000 -0.000001 0.000002 0.000002 -0.000001 0.000001 0.000000 -0.000000 0.000000 0.000000 -0.000000 0.000000 0.000000 -0.000000 0.000000 0.000000 -0.000000 0.000000 0.000000 -0.000000 0.000000 -0.000000 -0.000000 -0.000000 0.000000 -0.000000 0.000000 0.000000 -0.000000 0.000000 -0.000000 -0.000000 -0.000000 0.000000 -0.000000 -0.000000 0.000000 -0.000000 -0.000000 0.000001 0.000000 0.000000 
-0.114640 82.521835 0.506195 -4.045347 5.951082 -1.796954 0.000000 0.000000 0.000000 -2.701014 11.011063 10.767517 9.834332 -6.506057 0.189350 -4.332510 0.659807 -6.984976 -0.000000 -0.000000 0.000000 -0.000000 -0.000000 0.000000 0.000001 0.000001 -0.000000 -0.967273 -5.979969 1.739074 8.588622 3.670705 -0.482540 -3.377838 0.037518 0.207070 -0.000000 0.000000 0.000000 -0.000000 0.000000 0.000000 -0.000000 -0.000000 -0.000000 5.236389 -0.322682 1.188649 5.633655 -0.121061 1.918716 -4.352965 -0.591955 -1.049514 1.377147 -1.090217 0.931312 3.936335 -0.412710 -1.296462 0.000000 0.000000 -0.000000 0.000000 0.000000 -0.000000 0.000000 0.000000 -0.000000 1.651270 -7.731092 -3.681485 -0.695460 -2.100489 -76.810948 6.241780 -10.917066 1.584177 -0.232982 -0.585449 3.802331 -3.785243 8.454640 12.355332 7.482394 11.596689 -1.286028 -0.000000 -0.000001 -0.000001 2.379206 3.629042 -6.788398 0.000126 0.249698 -17.091013 -0.000000 -0.000000 -0.000004 -1.939403 5.657824 -11.364493 0.106887 0.707412 -24.761666 0.000002 -0.000001 -0.000000 -4.878406 10.039914 -7.848574 -0.020614 0.335916 -30.084729 -0.000000 0.000001 -0.000002 -6.440626 11.305778 -19.752711 0.037311 0.251359 -30.842112 -0.000001 -0.000001 0.000005 -0.000000 0.000000 0.000001 2.064652 10.089335 4.140847 1.630636 4.074593 75.042120 15.586956 15.435705 -4.453116 -5.016225 -0.489169 -0.882997 -0.464708 -9.050167 -6.077186 7.438710 -11.615220 1.273096 -0.000004 0.000001 0.000001 2.380994 -3.625715 8.514082 0.014274 -0.253037 18.699439 -0.000001 -0.000000 0.000005 -1.956574 -5.652400 13.660315 0.119715 -0.656249 26.931501 -0.000003 0.000002 0.000002 -4.927660 -10.055870 10.840811 -0.012117 -0.340702 32.907749 0.000001 -0.000000 0.000000 -6.435787 -11.256293 23.302843 0.055756 -0.250281 34.290213 -0.000001 -0.000001 -0.000003 0.000000 -0.000001 0.000000 0.000000 0.000000 -0.000000 0.000000 0.000000 -0.000000 0.000000 0.000000 -0.000000 0.000000 0.000000 -0.000000 0.000000 0.000000 -0.000000 -0.000000 0.000000 -0.000000 0.000000 0.000000 -0.000000 0.000000 0.000000 -0.000000 -0.000000 0.000000 -0.000000 -0.000000 0.000000 -0.000000 -0.000000 0.000000 -0.000000 0.000000 0.000000 0.000000 
-0.117937 82.511604 0.536642 -3.951509 5.765965 -1.828030 0.000000 -0.000000 0.000000 -2.786034 11.033389 10.801509 9.936108 -6.360076 0.181483 -4.427808 0.664455 -7.000147 0.000000 0.000001 -0.000000 0.000000 0.000001 0.000000 0.000001 0.000001 -0.000000 -1.165140 -5.966352 1.730887 8.770222 3.917830 -0.449545 -3.434177 0.038356 0.167451 -0.000000 -0.000000 0.000000 -0.000000 -0.000000 0.000000 -0.000000 0.000000 0.000000 5.415850 -0.328339 1.206676 5.522214 -0.132480 1.904806 -4.333486 -0.594682 -1.023816 1.247723 -1.042278 0.952613 3.900950 -0.349568 -1.362772 -0.000001 -0.000000 0.000000 -0.000001 -0.000000 0.000000 -0.000001 -0.000000 0.000000 1.620308 -7.552167 -3.860861 -0.751192 -2.300623 -76.607156 6.273864 -11.004184 1.438892 -0.243636 -0.478225 4.018980 -3.781381 8.444586 12.355043 7.491358 11.602859 -1.294919 0.000001 -0.000001 -0.000004 2.378277 3.651467 -6.736832 0.000125 0.249669 -17.072092 -0.000000 -0.000000 -0.000005 -1.949747 5.684357 -11.316847 0.106863 0.707401 -24.756647 -0.000000 -0.000000 0.000002 -4.898088 10.077532 -7.782042 -0.020651 0.335928 -30.084736 -0.000001 -0.000000 -0.000000 -6.457017 11.350217 -19.703786 0.037298 0.251352 -30.842129 0.000001 -0.000000 0.000001 0.000001 0.000000 -0.000001 1.990162 10.065642 4.383189 2.016834 4.166795 74.641926 15.644903 15.971455 -4.499030 -5.149050 -0.647296 -1.037988 -0.465251 -9.107752 -6.069210 7.427801 -11.616006 1.254603 -0.000001 0.000000 0.000002 2.399823 -3.617038 8.697714 0.014318 -0.253096 18.778314 -0.000000 0.000000 0.000000 -1.929487 -5.635143 13.790715 0.119795 -0.656297 26.948931 -0.000000 -0.000001 0.000001 -4.877830 -10.011682 10.983925 -0.012128 -0.340590 32.890042 -0.000002 0.000000 0.000000 -6.398364 -11.189224 23.375013 0.055647 -0.250158 34.259471 0.000001 -0.000002 0.000003 0.000002 0.000001 -0.000001 0.000000 0.000000 -0.000000 0.000000 0.000000 -0.000000 0.000000 0.000000 -0.000000 0.000000 0.000000 -0.000000 0.000000 0.000000 -0.000000 -0.000000 0.000000 0.000000 0.000000 0.000000 -0.000000 0.000000 0.000000 -0.000000 -0.000000 0.000000 0.000000 0.000000 0.000000 -0.000000 0.000000 0.000000 -0.000000 0.000000 -0.000000 0.000000 
-0.139163 82.497963 0.569363 -3.895697 5.564835 -1.869884 -0.000000 -0.000000 0.000000 -2.857502 11.110820 10.892037 10.067123 -6.266515 0.147158 -4.543238 0.670062 -7.015533 -0.000000 0.000000 -0.000000 -0.000000 0.000000 0.000000 0.000000 -0.000001 0.000000 -1.335589 -5.942735 1.744351 8.996351 4.052491 -0.393130 -3.519559 0.040256 0.093297 -0.000000 0.000000 -0.000000 -0.000000 0.000000 -0.000000 -0.000000 0.000000 -0.000000 5.796620 -0.335412 1.142955 5.242579 -0.156767 1.980717 -4.477641 -0.616531 -0.907269 1.569828 -0.951847 0.854657 3.456797 -0.286825 -1.374109 0.000001 0.000000 0.000000 0.000001 0.000000 0.000000 0.000001 0.000000 0.000000 1.575139 -7.497787 -4.111632 -0.649931 -2.291439 -76.423273 6.332389 -11.136893 1.329747 -0.228593 -0.569916 4.292972 -3.777153 8.428107 12.358936 7.504818 11.613060 -1.307486 -0.000000 0.000001 0.000000 2.372265 3.686794 -6.663241 0.000120 0.249631 -17.048074 -0.000003 -0.000002 -0.000004 -1.965986 5.722493 -11.247135 0.106861 0.707382 -24.752402 -0.000000 0.000000 0.000000 -4.930783 10.130592 -7.680374 -0.020618 0.335940 -30.088308 -0.000002 0.000000 -0.000000 -6.485178 11.413304 -19.627454 0.037292 0.251335 -30.842112 -0.000001 -0.000001 0.000003 0.000000 -0.000001 0.000000 1.992627 10.037300 4.259007 2.129316 4.477104 74.585720 15.564224 15.783217 -4.347646 -5.452077 -0.363440 -1.427773 -0.465843 -9.165418 -6.061394 7.416888 -11.616822 1.236013 -0.000003 -0.000002 -0.000001 2.418913 -3.608135 8.883893 0.014427 -0.253166 18.859052 -0.000000 0.000001 0.000000 -1.902502 -5.619331 13.921307 0.119921 -0.656336 26.966565 0.000002 0.000000 0.000003 -4.828675 -9.968016 11.124734 -0.012144 -0.340469 32.871450 0.000002 -0.000000 0.000000 -6.362045 -11.121743 23.442862 0.055557 -0.250012 34.225900 -0.000001 -0.000001 0.000000 -0.000000 -0.000001 -0.000001 -0.000000 -0.000000 0.000000 -0.000000 -0.000000 0.000000 -0.000000 -0.000000 0.000000 -0.000000 -0.000000 0.000000 -0.000000 -0.000000 0.000000 -0.000000 -0.000000 0.000000 -0.000000 -0.000000 0.000000 -0.000000 -0.000000 0.000000 -0.000000 -0.000000 0.000000 0.000000 0.000000 -0.000000 0.000000 0.000000 -0.000000 -0.000000 -0.000000 0.000000 
